<svg width="70" height="71" viewBox="0 0 70 71" fill="none" xmlns="http://www.w3.org/2000/svg" aria-hidden="true" data-acsb-hidden="true" data-acsb-force-hidden="true"><path d="M0 35.075C0 15.7523 15.6724 0.0839844 35 0.0839844C54.3276 0.0839844 70 15.7523 70 35.075C70 54.3976 54.3276 70.0659 35 70.0659C15.6724 70.0659 0 54.3976 0 35.075Z" fill="#EDF5DC"></path><path d="M39.4493 16.1382H21V54.0112H39.4493C49.961 54.0112 58.4706 45.5396 58.4706 35.0747C58.4706 24.6098 49.961 16.1382 39.4493 16.1382Z" fill="#BAE077"></path><path d="M43.2326 37.3682C43.2326 41.6602 41.4381 43.6374 38.1122 43.6374C34.8103 43.6374 32.9919 41.6361 32.9919 37.3682V24.3716H29.2354V37.754C29.2354 43.8786 32.8483 47.0132 38.0883 47.0132C43.3761 47.0132 46.9412 43.9027 46.9412 37.8022V24.3716H43.1847V37.3682H43.2326Z" fill="black"></path><path fill-rule="evenodd" clip-rule="evenodd" d="M20.785 3.09131C8.53941 8.54011 0 20.812 0 35.0751C0 49.3382 8.53941 61.6102 20.785 67.059V3.09131Z" fill="#63C3DB"></path></svg>